<svg xmlns="http://www.w3.org/2000/svg" viewBox="0 0 320 380" role="img" aria-label="Tomoko surprised">
  <rect width="320" height="380" fill="#e6f2ff"/>
  <path d="M64 350 C77 292 91 251 112 226 H208 C229 251 243 292 256 350 Z" fill="#40515f"/>
  <path d="M101 350 C111 299 126 270 160 270 C194 270 209 299 219 350 Z" fill="#547aa5"/>
  <path d="M91 153 C91 92 119 55 160 55 C201 55 229 92 229 153 C229 218 202 253 160 253 C118 253 91 218 91 153 Z" fill="#f4c9ad"/>
  <path d="M82 151 C84 88 113 43 160 43 C207 43 236 88 238 151 C223 120 198 105 160 105 C122 105 97 120 82 151 Z" fill="#313845"/>
  <path d="M94 121 C116 78 145 67 160 67 C175 67 204 78 226 121 C212 91 189 78 160 78 C131 78 108 91 94 121 Z" fill="#46505e"/>
  <path d="M119 132 L143 127" stroke="#313845" stroke-width="5" stroke-linecap="round"/>
  <path d="M177 127 L201 132" stroke="#313845" stroke-width="5" stroke-linecap="round"/>
  <path d="M125 156 A9 11 0 1 0 126 156" stroke="#2b2f36" stroke-width="6" stroke-linecap="round" fill="none"/>
  <path d="M185 156 A9 11 0 1 0 186 156" stroke="#2b2f36" stroke-width="6" stroke-linecap="round" fill="none"/>
  <path d="M159 160 C154 177 151 185 160 188" stroke="#d99d86" stroke-width="4" stroke-linecap="round" fill="none"/>
  <path d="M151 203 Q160 193 169 203 Q160 219 151 203" stroke="#8f4b4b" stroke-width="6" stroke-linecap="round" fill="none"/>
  <ellipse cx="119" cy="186" rx="20" ry="11" fill="#ee8f93" opacity="0.28"/>
  <ellipse cx="201" cy="186" rx="20" ry="11" fill="#ee8f93" opacity="0.28"/>
  <path d="M82 151 C73 183 77 221 104 243" stroke="#313845" stroke-width="18" stroke-linecap="round" fill="none"/>
  <path d="M238 151 C247 183 243 221 216 243" stroke="#313845" stroke-width="18" stroke-linecap="round" fill="none"/>
  <path d="M115 274 C132 286 188 286 205 274" stroke="#f4c9ad" stroke-width="18" stroke-linecap="round"/>
</svg>
